<svg xmlns="http://www.w3.org/2000/svg" viewBox="45.6 43 108.67 24"><script/><path fill="#fff" d="M62.068 58.057V50.18c0-2.235-1.2-3.296-3.216-3.296-1.677 0-3.126.993-3.76 1.986-.408-1.241-1.428-1.986-3.036-1.986-1.676 0-3.126 1.038-3.58 1.693v-1.422H45.6v10.903h2.877V50.72c.43-.609 1.268-1.286 2.265-1.286 1.178 0 1.631.722 1.631 1.738v6.885h2.9v-7.359c.407-.587 1.245-1.264 2.265-1.264 1.178 0 1.63.722 1.63 1.738v6.885h2.9ZM69.964 58.328c3.624 0 5.799-2.618 5.799-5.734 0-3.093-2.175-5.711-5.799-5.711-3.602 0-5.776 2.618-5.776 5.711 0 3.116 2.174 5.734 5.776 5.734Zm0-2.55c-1.79 0-2.786-1.468-2.786-3.184 0-1.693.996-3.16 2.786-3.16s2.809 1.467 2.809 3.16c0 1.716-1.02 3.183-2.809 3.183ZM88.159 58.057V50.36c0-2.122-1.156-3.476-3.557-3.476-1.79 0-3.126.858-3.828 1.693v-1.422h-2.877v10.903h2.877V50.72c.476-.654 1.36-1.286 2.492-1.286 1.223 0 2.016.519 2.016 2.032v6.591h2.877ZM96.09 58.328c3.624 0 5.798-2.618 5.798-5.734 0-3.093-2.174-5.711-5.799-5.711-3.601 0-5.776 2.618-5.776 5.711 0 3.116 2.175 5.734 5.776 5.734Zm0-2.55c-1.79 0-2.787-1.468-2.787-3.184 0-1.693.997-3.16 2.786-3.16 1.79 0 2.81 1.467 2.81 3.16 0 1.716-1.02 3.183-2.81 3.183ZM106.9 54.558v-3.86c.475-.722 1.54-1.264 2.468-1.264 1.677 0 2.787 1.287 2.787 3.183s-1.11 3.16-2.787 3.16c-.928 0-1.993-.519-2.468-1.219Zm0 3.5v-1.4c.86 1.083 2.061 1.67 3.374 1.67 2.764 0 4.848-2.077 4.848-5.711 0-3.567-2.061-5.734-4.848-5.734-1.29 0-2.514.564-3.374 1.67V43h-2.877v15.057h2.877ZM126.742 58.057v-7.043c0-3.138-2.288-4.131-4.78-4.131-1.722 0-3.443.542-4.78 1.715l1.087 1.92c.929-.858 2.016-1.287 3.194-1.287 1.45 0 2.402.722 2.402 1.828v1.468c-.725-.858-2.016-1.332-3.466-1.332-1.744 0-3.806.97-3.806 3.521 0 2.438 2.062 3.612 3.806 3.612 1.427 0 2.718-.519 3.466-1.4v1.13h2.877Zm-5.188-1.67c-1.133 0-2.061-.587-2.061-1.603 0-1.061.928-1.648 2.061-1.648.929 0 1.835.316 2.311.948v1.355c-.476.632-1.382.948-2.311.948ZM139.856 58.057V50.36c0-2.122-1.155-3.476-3.556-3.476-1.789 0-3.126.858-3.828 1.693v-1.422h-2.877v10.903h2.877V50.72c.475-.654 1.359-1.286 2.491-1.286 1.224 0 2.016.519 2.016 2.032v6.591h2.877ZM153.405 58.057l-4.463-5.96 4.327-4.943h-3.534l-4.145 4.853V43h-2.877v15.057h2.877v-2.799l1.314-1.4 2.899 4.2h3.602Z"/><g fill="#7F7F7F"><path d="M151.679 62.998h.726v2.316h.041l.944-1.112.67-.002-1.036 1.216 1.248 1.521h-.836l-1.021-1.416h-.01v1.416h-.726v-3.94ZM117.157 63.174v2.16c0 .736.217 1.138.826 1.138.582 0 .815-.487.815-1.095v-2.203h.687v2.337c0 .95-.621 1.49-1.524 1.49-1.033 0-1.571-.502-1.571-1.527v-2.3h.767ZM121.089 64.565c.246-.257.588-.38.931-.38.636 0 .973.342.973 1.02v1.73h-.722v-1.65c0-.376-.168-.623-.545-.623-.353 0-.631.23-.631.672v1.6h-.723v-2.686h.717v.317ZM123.843 66.936h.723v-2.687h-.723v2.687Zm-.071-3.493c0-.204.174-.414.419-.414.25 0 .445.205.445.414 0 .231-.168.452-.434.452-.256 0-.43-.221-.43-.452ZM126.166 66.935l-1.157-2.699h.766c.234.618.478 1.2.706 1.947h.011c.245-.747.477-1.329.727-1.947h.678l-1.225 2.699h-.506ZM130.049 65.27c.028-.41-.119-.689-.477-.689-.415 0-.601.328-.593.688h1.07Zm-1.082.386c-.016.506.342.881.794.881.268 0 .549-.091.73-.215l.206.377c-.37.214-.756.301-1.066.301-.822 0-1.436-.576-1.436-1.462 0-.828.609-1.354 1.387-1.354.848 0 1.202.671 1.149 1.472h-1.764ZM132.15 64.72h.011l.147-.209c.08-.118.244-.327.467-.327.163 0 .338.086.49.241l-.272.495a.66.66 0 0 0-.343-.091c-.25 0-.495.198-.495.778v1.328h-.725v-2.687h.72v.473ZM135.196 64.753a.825.825 0 0 0-.462-.172c-.163 0-.327.091-.327.274 0 .215.262.34.566.559.388.286.501.565.501.81 0 .378-.42.776-1.017.776-.376 0-.653-.13-.908-.307l.228-.37c.162.129.396.257.591.257.209 0 .393-.108.393-.333 0-.253-.284-.392-.544-.575-.31-.21-.522-.414-.522-.746 0-.426.412-.742.946-.742.3 0 .593.075.79.248l-.235.32ZM137.257 65.505c-.353.113-.532.312-.532.618 0 .237.152.398.327.398.287 0 .663-.355.609-1.144l-.404.129Zm.23 1.172c-.197.162-.447.323-.696.323-.425 0-.779-.323-.779-.817 0-.511.376-.796 1.007-.979l.642-.188a.49.49 0 0 0-.494-.402c-.311 0-.529.113-.719.274l-.235-.339a1.555 1.555 0 0 1 1.044-.365c.502 0 1.117.16 1.117 1v1.095c0 .215.026.469.114.656h-.767c-.056-.092-.071-.247-.071-.392l-.163.134ZM139.184 66.935h.724v-3.95h-.724v3.95ZM146.316 65.505c-.354.113-.534.312-.534.618 0 .237.152.398.327.398.287 0 .663-.355.61-1.144l-.403.129Zm.227 1.172c-.195.162-.445.323-.696.323-.424 0-.778-.323-.778-.817 0-.511.375-.796 1.008-.979l.642-.188a.492.492 0 0 0-.497-.402c-.309 0-.527.113-.718.274l-.234-.339c.338-.274.67-.365 1.046-.365.499 0 1.114.16 1.114 1v1.095c0 .215.027.469.113.656h-.765c-.054-.092-.072-.247-.072-.392l-.163.134ZM148.959 64.565c.245-.257.588-.38.931-.38.636 0 .973.342.973 1.02v1.73h-.723v-1.65c0-.376-.169-.623-.544-.623-.354 0-.632.23-.632.672v1.6h-.723v-2.686h.718v.317ZM142.548 66.483h.391c.425 0 .747-.22.747-.639 0-.44-.332-.629-.751-.629h-.387v1.268Zm0-1.73h.24c.441 0 .741-.279.741-.629 0-.332-.252-.477-.584-.477h-.397v1.106Zm-.767 2.192v-3.76h1.377c.642 0 1.094.29 1.094.8 0 .601-.495.849-.762.918v.011c.474.022 1.001.344 1.001.919 0 .65-.55 1.112-1.447 1.112h-1.263Z"/></g></svg>